# xmcd CD database file
#
# Track frame offsets:
#	182
#	20465
#	43625
#
# Disc length: 921 seconds
#
# Revision: 0
# Processed by: cddbd v1.5.1PL2 Copyright (c) Steve Scherf et al.
# Submitted via: CDex 1.51
#
DISCID=1b039703
DTITLE=Sting - When We Dance US Promo
DYEAR=1900
DGENRE=Rock
TTITLE0=When We Dance (Classic Radio With Edit)
TTITLE1=When We Dance (Classic Radio)
TTITLE2=When We Dance (Full Length Classic Radio)
EXTD=
EXTT0=
EXTT1=
EXTT2=
PLAYORDER=
